<mxfile host="app.diagrams.net" agent="Mozilla/5.0 (Windows NT 10.0; Win64; x64) AppleWebKit/537.36 (KHTML, like Gecko) Chrome/135.0.0.0 Safari/537.36" version="26.2.13">
  <diagram id="9e7BRUzjvNmEs0wVggqz" name="Activity Diagram">
    <mxGraphModel grid="1" page="1" gridSize="10" guides="1" tooltips="1" connect="1" arrows="1" fold="1" pageScale="1" pageWidth="850" pageHeight="1100" math="0" shadow="0">
      <root>
        <mxCell id="0" />
        <mxCell id="1" parent="0" />
        <mxCell id="2" value="Người dùng" style="swimlane;startSize=30;" vertex="1" parent="1">
          <mxGeometry x="110" y="50" width="370" height="920" as="geometry" />
        </mxCell>
        <mxCell id="3" value="" style="ellipse;whiteSpace=wrap;html=1;aspect=fixed;" vertex="1" parent="2">
          <mxGeometry x="120" y="50" width="30" height="30" as="geometry" />
        </mxCell>
        <mxCell id="4" value="Truy cập danh mục sản phẩm" style="rounded=1;whiteSpace=wrap;html=1;" vertex="1" parent="2">
          <mxGeometry x="90" y="130" width="90" height="40" as="geometry" />
        </mxCell>
        <mxCell id="5" value="Chọn phân loại sản phẩm" style="rounded=1;whiteSpace=wrap;html=1;" vertex="1" parent="2">
          <mxGeometry x="85" y="230" width="90" height="40" as="geometry" />
        </mxCell>
        <mxCell id="6" value="Nhập từ khóa tìm kiếm" style="rhombus;whiteSpace=wrap;html=1;" vertex="1" parent="2">
          <mxGeometry x="40" y="370" width="180" height="80" as="geometry" />
        </mxCell>
        <mxCell id="mQjRjSqNaWu9vxx7pUrF-72" value="Yes" style="edgeStyle=orthogonalEdgeStyle;rounded=0;html=1;jettySize=auto;orthogonalLoop=1;exitX=0;exitY=0.5;exitDx=0;exitDy=0;" edge="1" parent="2" source="18">
          <mxGeometry relative="1" as="geometry">
            <Array as="points">
              <mxPoint x="550" y="410" />
              <mxPoint x="550" y="410" />
            </Array>
            <mxPoint x="700" y="470" as="sourcePoint" />
            <mxPoint x="220" y="410" as="targetPoint" />
          </mxGeometry>
        </mxCell>
        <mxCell id="mQjRjSqNaWu9vxx7pUrF-77" value="Người dùng xem chi tiết sản phẩm hoặc thực hiện thao tác khác" style="rounded=1;whiteSpace=wrap;html=1;" vertex="1" parent="2">
          <mxGeometry x="70" y="620" width="120" height="60" as="geometry" />
        </mxCell>
        <mxCell id="mQjRjSqNaWu9vxx7pUrF-79" value="" style="ellipse;whiteSpace=wrap;html=1;aspect=fixed;fillColor=#000000;" vertex="1" parent="2">
          <mxGeometry x="115" y="820" width="30" height="30" as="geometry" />
        </mxCell>
        <mxCell id="mQjRjSqNaWu9vxx7pUrF-80" value="" style="endArrow=classic;html=1;rounded=0;exitX=0.5;exitY=1;exitDx=0;exitDy=0;entryX=0.5;entryY=0;entryDx=0;entryDy=0;" edge="1" parent="2" source="mQjRjSqNaWu9vxx7pUrF-77" target="mQjRjSqNaWu9vxx7pUrF-79">
          <mxGeometry width="50" height="50" relative="1" as="geometry">
            <mxPoint x="590" y="580" as="sourcePoint" />
            <mxPoint x="640" y="530" as="targetPoint" />
          </mxGeometry>
        </mxCell>
        <mxCell id="12" value="Hệ thống" style="swimlane;startSize=30;" vertex="1" parent="1">
          <mxGeometry x="480" y="50" width="500" height="920" as="geometry" />
        </mxCell>
        <mxCell id="13" value="Kiểm tra đăng nhập?" style="rhombus;whiteSpace=wrap;html=1;" vertex="1" parent="12">
          <mxGeometry x="20" y="110" width="130" height="80" as="geometry" />
        </mxCell>
        <mxCell id="14" value="Yêu cầu đăng nhập" style="rounded=1;whiteSpace=wrap;html=1;arcSize=50;" vertex="1" parent="12">
          <mxGeometry x="195" y="130" width="90" height="40" as="geometry" />
        </mxCell>
        <mxCell id="15" value="Đăng nhập thành công?" style="rhombus;whiteSpace=wrap;html=1;" vertex="1" parent="12">
          <mxGeometry x="155" y="300" width="80" height="80" as="geometry" />
        </mxCell>
        <mxCell id="16" value="Thông báo lỗi" style="rounded=1;whiteSpace=wrap;html=1;" vertex="1" parent="12">
          <mxGeometry x="310" y="320" width="90" height="40" as="geometry" />
        </mxCell>
        <mxCell id="17" value="" style="ellipse;whiteSpace=wrap;html=1;aspect=fixed;fillColor=#000000;" vertex="1" parent="12">
          <mxGeometry x="450" y="325" width="30" height="30" as="geometry" />
        </mxCell>
        <mxCell id="18" value="Hợp lệ?" style="rhombus;whiteSpace=wrap;html=1;" vertex="1" parent="12">
          <mxGeometry x="205" y="370" width="80" height="80" as="geometry" />
        </mxCell>
        <mxCell id="mQjRjSqNaWu9vxx7pUrF-76" style="edgeStyle=orthogonalEdgeStyle;rounded=0;orthogonalLoop=1;jettySize=auto;html=1;entryX=0.5;entryY=0;entryDx=0;entryDy=0;" edge="1" parent="12" source="19" target="mQjRjSqNaWu9vxx7pUrF-75">
          <mxGeometry relative="1" as="geometry" />
        </mxCell>
        <mxCell id="19" value="truy vấn danh sách sản phẩm" style="rounded=1;whiteSpace=wrap;html=1;" vertex="1" parent="12">
          <mxGeometry x="200" y="490" width="90" height="40" as="geometry" />
        </mxCell>
        <mxCell id="46" value="No" style="edgeStyle=orthogonalEdgeStyle;rounded=0;html=1;jettySize=auto;orthogonalLoop=1;entryX=1;entryY=0.5;entryDx=0;entryDy=0;" edge="1" parent="12" source="18" target="mQjRjSqNaWu9vxx7pUrF-75">
          <mxGeometry relative="1" as="geometry">
            <Array as="points">
              <mxPoint x="325" y="410" />
              <mxPoint x="325" y="650" />
            </Array>
            <mxPoint x="325" y="540" as="targetPoint" />
          </mxGeometry>
        </mxCell>
        <mxCell id="mQjRjSqNaWu9vxx7pUrF-75" value="hiển thị kết quả" style="rounded=1;whiteSpace=wrap;html=1;" vertex="1" parent="12">
          <mxGeometry x="185" y="620" width="120" height="60" as="geometry" />
        </mxCell>
        <mxCell id="33" style="edgeStyle=orthogonalEdgeStyle;rounded=0;html=1;jettySize=auto;orthogonalLoop=1;" edge="1" parent="1" source="3" target="4">
          <mxGeometry relative="1" as="geometry" />
        </mxCell>
        <mxCell id="34" style="edgeStyle=orthogonalEdgeStyle;rounded=0;html=1;jettySize=auto;orthogonalLoop=1;" edge="1" parent="1" source="4" target="13">
          <mxGeometry relative="1" as="geometry" />
        </mxCell>
        <mxCell id="35" value="No" style="edgeStyle=orthogonalEdgeStyle;rounded=0;html=1;jettySize=auto;orthogonalLoop=1;entryX=0;entryY=0.5;entryDx=0;entryDy=0;exitX=1;exitY=0.5;exitDx=0;exitDy=0;" edge="1" parent="1" source="13" target="14">
          <mxGeometry relative="1" as="geometry" />
        </mxCell>
        <mxCell id="36" value="Yes" style="edgeStyle=orthogonalEdgeStyle;rounded=0;html=1;jettySize=auto;orthogonalLoop=1;" edge="1" parent="1" source="13" target="5">
          <mxGeometry relative="1" as="geometry">
            <Array as="points">
              <mxPoint x="565" y="300" />
            </Array>
          </mxGeometry>
        </mxCell>
        <mxCell id="37" style="edgeStyle=orthogonalEdgeStyle;rounded=0;html=1;jettySize=auto;orthogonalLoop=1;entryX=0.5;entryY=0;entryDx=0;entryDy=0;" edge="1" parent="1" source="14" target="15">
          <mxGeometry relative="1" as="geometry">
            <Array as="points">
              <mxPoint x="720" y="310" />
              <mxPoint x="675" y="310" />
            </Array>
          </mxGeometry>
        </mxCell>
        <mxCell id="38" value="Yes" style="edgeStyle=orthogonalEdgeStyle;rounded=0;html=1;jettySize=auto;orthogonalLoop=1;exitX=0;exitY=0.5;exitDx=0;exitDy=0;" edge="1" parent="1" source="15" target="5">
          <mxGeometry relative="1" as="geometry">
            <Array as="points">
              <mxPoint x="280" y="390" />
            </Array>
          </mxGeometry>
        </mxCell>
        <mxCell id="39" value="No" style="edgeStyle=orthogonalEdgeStyle;rounded=0;html=1;jettySize=auto;orthogonalLoop=1;" edge="1" parent="1" source="15" target="16">
          <mxGeometry relative="1" as="geometry" />
        </mxCell>
        <mxCell id="40" style="edgeStyle=orthogonalEdgeStyle;rounded=0;html=1;jettySize=auto;orthogonalLoop=1;" edge="1" parent="1" source="16" target="17">
          <mxGeometry relative="1" as="geometry" />
        </mxCell>
        <mxCell id="41" style="edgeStyle=orthogonalEdgeStyle;rounded=0;html=1;jettySize=auto;orthogonalLoop=1;" edge="1" parent="1" source="5" target="6">
          <mxGeometry relative="1" as="geometry" />
        </mxCell>
        <mxCell id="45" value="Yes" style="edgeStyle=orthogonalEdgeStyle;rounded=0;html=1;jettySize=auto;orthogonalLoop=1;" edge="1" parent="1" source="18" target="19">
          <mxGeometry relative="1" as="geometry" />
        </mxCell>
        <mxCell id="mQjRjSqNaWu9vxx7pUrF-71" value="Yes" style="edgeStyle=orthogonalEdgeStyle;rounded=0;html=1;jettySize=auto;orthogonalLoop=1;exitX=0;exitY=0.5;exitDx=0;exitDy=0;" edge="1" parent="1">
          <mxGeometry relative="1" as="geometry">
            <Array as="points">
              <mxPoint x="280" y="390" />
            </Array>
            <mxPoint x="635" y="390" as="sourcePoint" />
            <mxPoint x="280" y="320" as="targetPoint" />
          </mxGeometry>
        </mxCell>
        <mxCell id="mQjRjSqNaWu9vxx7pUrF-78" value="" style="endArrow=classic;html=1;rounded=0;exitX=0;exitY=0.5;exitDx=0;exitDy=0;" edge="1" parent="1" source="mQjRjSqNaWu9vxx7pUrF-75">
          <mxGeometry width="50" height="50" relative="1" as="geometry">
            <mxPoint x="510" y="610" as="sourcePoint" />
            <mxPoint x="320" y="700" as="targetPoint" />
          </mxGeometry>
        </mxCell>
      </root>
    </mxGraphModel>
  </diagram>
</mxfile>
